<?xml version="1.0" standalone="no"?>
<!DOCTYPE svg PUBLIC "-//W3C//DTD SVG 20010904//EN"
 "http://www.w3.org/TR/2001/REC-SVG-20010904/DTD/svg10.dtd">
<svg version="1.0" xmlns="http://www.w3.org/2000/svg"
 width="1600.000000pt" height="1600.000000pt" viewBox="0 0 1600.000000 1600.000000"
 preserveAspectRatio="xMidYMid meet">
<metadata>
Created by potrace 1.14, written by Peter Selinger 2001-2017
</metadata>
<g transform="translate(0.000000,1600.000000) scale(0.100000,-0.100000)"
fill="#000000" stroke="none">
<path d="M7910 15994 c-618 -40 -989 -95 -1465 -218 -995 -258 -1877 -730
-2697 -1442 -270 -235 -700 -685 -954 -999 -1189 -1471 -1795 -3289 -1794
-5385 1 -1936 540 -3635 1608 -5065 742 -995 1631 -1760 2597 -2235 698 -343
1415 -543 2245 -626 221 -22 894 -31 1142 -15 1203 77 2225 410 3163 1029
1291 852 2268 2196 2861 3936 35 103 64 192 64 197 0 5 -318 9 -749 9 l-748 0
-92 -182 c-218 -438 -485 -844 -804 -1228 -151 -181 -528 -560 -707 -710 -867
-729 -1840 -1145 -2950 -1262 -168 -17 -782 -17 -950 0 -1146 121 -2138 556
-3029 1331 -170 147 -478 462 -627 641 -895 1070 -1405 2383 -1495 3845 -15
237 -6 756 16 990 105 1120 462 2155 1050 3045 902 1365 2259 2270 3760 2505
289 45 477 59 800 59 323 0 514 -14 800 -59 1702 -267 3228 -1407 4080 -3049
l87 -166 484 0 484 0 0 2325 0 2325 -810 0 -810 0 0 -640 c0 -352 -3 -640 -6
-640 -4 0 -36 28 -73 63 -162 152 -427 369 -631 517 -886 644 -1787 984 -2880
1086 -154 14 -833 27 -970 18z"/>
<path d="M7785 13629 c-798 -69 -1558 -333 -2240 -777 -302 -197 -567 -413
-840 -686 -723 -724 -1237 -1642 -1494 -2671 -182 -726 -227 -1524 -131 -2275
69 -533 206 -1051 404 -1535 56 -135 271 -581 298 -618 12 -17 27 -7 183 120
303 246 475 368 750 532 214 128 486 264 680 340 101 40 156 67 167 83 16 21
18 82 28 643 5 341 13 956 17 1368 l6 747 -476 0 -477 0 0 115 0 115 485 0
485 0 0 315 0 315 160 0 160 0 0 -310 0 -310 410 0 410 0 0 -120 0 -120 -415
0 -415 0 0 -237 c0 -131 -7 -728 -15 -1328 -8 -599 -13 -1090 -12 -1091 1 -1
36 9 77 22 120 38 452 120 620 153 311 60 678 104 986 117 l154 7 0 136 c0
125 20 1639 36 2794 l7 487 -657 0 -656 0 0 200 0 200 655 0 654 0 3 655 c3
612 4 655 21 672 15 15 39 19 145 21 138 4 177 -4 191 -40 4 -13 13 -246 20
-518 6 -272 14 -559 18 -637 l6 -143 709 0 708 0 0 -205 0 -205 -706 0 -707 0
7 -152 c3 -84 24 -812 46 -1618 22 -806 43 -1507 46 -1557 l6 -93 66 0 c102 0
397 -28 592 -55 471 -67 963 -177 1338 -300 l132 -43 0 82 c0 44 -7 556 -15
1136 -8 580 -15 1155 -15 1278 l0 222 -435 0 -435 0 0 53 c0 30 3 88 6 130 l7
77 423 0 424 0 0 331 0 331 110 -4 c83 -2 113 -7 120 -18 14 -23 19 -90 26
-372 l6 -268 524 0 524 0 0 -130 0 -130 -514 0 -513 0 -6 -51 c-4 -28 -4 -115
-1 -193 2 -77 11 -415 19 -751 34 -1397 47 -1789 60 -1810 7 -11 48 -33 91
-49 441 -160 1012 -460 1533 -804 193 -128 205 -134 218 -116 27 37 192 371
253 514 257 598 403 1190 472 1905 17 175 17 817 0 1005 -30 338 -87 678 -163
985 -439 1767 -1654 3205 -3229 3820 -440 172 -883 274 -1365 315 -142 12
-627 11 -770 -1z"/>
<path d="M13845 8940 c3 -5 12 -7 20 -3 21 7 19 13 -6 13 -11 0 -18 -4 -14
-10z"/>
<path d="M7540 6193 c-561 -42 -1075 -136 -1503 -276 l-132 -43 -3 -242 -2
-242 -165 0 -165 0 0 185 0 185 -26 0 c-40 0 -478 -149 -656 -223 -187 -79
-409 -189 -522 -259 -141 -88 -496 -340 -496 -352 0 -15 152 -254 240 -376
740 -1037 1768 -1754 2925 -2041 189 -47 442 -92 656 -116 217 -24 771 -24
984 0 797 93 1501 347 2160 781 640 422 1182 984 1613 1673 29 46 52 87 52 91
0 10 -552 279 -785 382 -305 136 -677 276 -912 344 l-53 15 0 -190 0 -189
-155 0 -155 0 0 243 0 244 -162 51 c-642 203 -1130 295 -1890 357 l-78 7 0
-946 0 -946 -264 0 -265 0 -20 26 c-21 27 -21 31 -21 945 l0 919 -77 -2 c-43
-1 -98 -3 -123 -5z"/>
</g>
</svg>
