<?xml version="1.0" encoding="utf-8"?>
<!-- Generator: Adobe Illustrator 26.2.1, SVG Export Plug-In . SVG Version: 6.00 Build 0)  -->
<svg version="1.1" id="Layer_1" xmlns="http://www.w3.org/2000/svg" xmlns:xlink="http://www.w3.org/1999/xlink" x="0px" y="0px"
	 viewBox="0 0 122.9 73.3" style="enable-background:new 0 0 122.9 73.3;" xml:space="preserve">
<style type="text/css">
	.st0{fill:#3C72FC;}
</style>
<g>
	<path class="st0" d="M70,14.1c1.3,0,2.6,0.4,3.6,1.1v-1.8c0-1.8,0.7-3.4,1.9-4.6s2.8-1.9,4.6-1.9h0c1.3,0,2.7,0.4,3.8,1.2V6.6
		c0-1.8,0.7-3.5,1.9-4.6C87,0.7,88.6,0,90.4,0c1.8,0,3.4,0.7,4.6,1.9S97,4.8,97,6.6V8c1.1-0.7,2.3-1.1,3.7-1.1
		c1.8,0,3.4,0.7,4.6,1.9s1.9,2.8,1.9,4.6v27.4c0.1,0.5,0.1,1.1,0.1,1.6l0,0v1.8l0.2-0.2c1.1-1.1,2.2-2.2,2.7-2.6
		c2.8-2.8,5.8-3.4,8.2-2.6c1.1,0.3,2,1,2.8,1.8c0.7,0.8,1.3,1.8,1.5,2.9c0.6,2.7-0.2,6-3.5,9l-0.1,0l0,0l0,0
		c-3.9,3.9-14.6,16.5-21,19c-7.1,2.8-20.5,2.1-27.4-2.4c0.6-0.6,1.4-1.3,2.2-2.1c6.2,3.6,18.3,4.1,24.1,1.7
		c5.7-2.2,17.1-15.4,20-18.3c0.1,0,0.1-0.1,0.2-0.2l1,1.1l-1-1.1c2.4-2.1,3.1-4.4,2.6-6.1c-0.2-0.6-0.4-1.2-0.8-1.6
		c-0.4-0.4-0.9-0.8-1.4-0.9c-1.4-0.5-3.3,0-5.2,1.9c-0.4,0.4-1.6,1.6-2.7,2.7c-1.1,1-2.2,2-2.9,2.4c-0.2,0.2-0.5,0.2-0.8,0.2l0,0
		l-1.2-0.6l-0.3-5.9c0-11-0.1-18-0.1-29c0-1-0.4-1.9-1.1-2.5s-1.5-1.1-2.5-1.1c-1,0-1.9,0.4-2.5,1.1c-0.7,0.6-1.1,1.5-1.1,2.5v22.5
		H94V6.6c0-1-0.4-1.9-1.1-2.5s-1.5-1-2.5-1c-1,0-1.9,0.4-2.5,1s-1.1,1.5-1.1,2.5v29.4h-3.2V13.4c0-1-0.4-1.9-1.1-2.5
		c-0.6-0.7-1.5-1.1-2.5-1.1c-1,0-1.9,0.4-2.5,1.1c-0.7,0.6-1.1,1.6-1.1,2.5v19.5c-1-0.4-2-0.8-3-1V20.6c0-1-0.4-1.9-1.1-2.5
		c-0.7-0.6-1.5-1-2.5-1c-1,0-1.9,0.4-2.5,1s-1.1,1.5-1.1,2.5v11.3c-1.1,0.3-2.1,0.6-3,1.1V20.6c0-1.8,0.7-3.5,1.9-4.6
		C66.5,14.8,68.2,14.1,70,14.1L70,14.1L70,14.1L70,14.1z M61,42.6c2.5-2.6,4.2-4.8,8.1-5.3c7.2-0.8,13.8,6.5,10.2,13.8
		c-1,2.1-3.1,4.5-5.5,6.9c-2.6,2.6-5.4,5.2-7.4,7.2l-5.4,5.4l-4.5-4.3c-5.4-5.2-14.1-11.7-14.4-19.7c-0.2-5.7,4.2-9.3,9.4-9.2
		C56.1,37.5,58.1,39.7,61,42.6L61,42.6L61,42.6L61,42.6z M52.9,14.1c-1.3,0-2.5,0.4-3.6,1.1v-1.8c0-1.8-0.7-3.4-1.9-4.6
		s-2.8-1.9-4.6-1.9h0c-1.3,0-2.7,0.4-3.8,1.2V6.6c0-1.8-0.7-3.5-1.9-4.6C35.9,0.7,34.2,0,32.4,0c-1.8,0-3.5,0.7-4.6,1.9
		c-1.2,1.2-1.9,2.8-1.9,4.6V8c-1-0.7-2.3-1.1-3.7-1.1c-1.8,0-3.5,0.7-4.6,1.9c-1.2,1.2-1.9,2.8-1.9,4.6v27.4
		c-0.1,0.5-0.1,1.1-0.1,1.6l0,0v1.8l-0.2-0.2c-1.1-1.1-2.2-2.2-2.7-2.6c-2.8-2.8-5.8-3.4-8.2-2.6c-1.1,0.3-2,1-2.8,1.8
		c-0.7,0.8-1.3,1.8-1.5,2.9c-0.6,2.7,0.2,6,3.5,9l0,0l0,0l0,0c3.9,3.9,14.6,16.5,21,19c6.9,2.7,19.8,2.2,26.8-2
		c-0.5-0.5-1.1-1-1.7-1.5l-0.6-0.6c-6.4,3.3-17.8,3.6-23.4,1.3c-5.7-2.2-17.1-15.4-20-18.3c-0.1,0-0.1-0.1-0.2-0.2l-1,1.1l1-1.1
		c-2.4-2.1-3-4.4-2.6-6.1c0.2-0.6,0.4-1.2,0.8-1.6c0.4-0.4,0.9-0.8,1.5-0.9c1.4-0.5,3.3,0,5.2,1.9c0.4,0.4,1.6,1.6,2.7,2.7
		c1.1,1,2.2,2,2.9,2.4c0.2,0.2,0.5,0.2,0.8,0.2l0,0l1.2-0.6l0.4-5.9c0-11,0.1-18,0.1-29c0-1,0.4-1.9,1-2.5s1.5-1.1,2.5-1.1
		c1,0,1.9,0.4,2.5,1.1c0.6,0.6,1,1.5,1,2.5V36h3.1V6.6c0-1,0.4-1.9,1-2.5s1.5-1,2.5-1c1,0,1.9,0.4,2.5,1c0.7,0.7,1,1.5,1,2.5v29.4
		h3.2V13.4c0-1,0.4-1.9,1-2.5c0.7-0.6,1.5-1.1,2.5-1.1s1.9,0.4,2.5,1.1c0.7,0.6,1,1.6,1,2.5v19c1-0.3,2-0.5,3-0.7V20.6
		c0-1,0.4-1.9,1-2.5c0.7-0.6,1.5-1,2.5-1s1.9,0.4,2.5,1c0.7,0.6,1,1.5,1,2.5c0,4.2,0,8,0,11.6c1.1,0.3,2.1,0.8,3,1.3v-13
		c0-1.8-0.7-3.5-1.9-4.6C56.4,14.8,54.7,14.1,52.9,14.1L52.9,14.1L52.9,14.1L52.9,14.1z"/>
</g>
</svg>
