<?xml version="1.0" encoding="utf-8"?>
<!-- Generator: Adobe Illustrator 27.8.1, SVG Export Plug-In . SVG Version: 6.00 Build 0)  -->
<svg version="1.1" id="Layer_1" xmlns="http://www.w3.org/2000/svg" xmlns:xlink="http://www.w3.org/1999/xlink" x="0px" y="0px"
	 viewBox="0 0 263.6 234.6" style="enable-background:new 0 0 263.6 234.6;" xml:space="preserve">
<style type="text/css">
	.st0{fill:#77411B;}
	.st1{fill:#E7D31B;}
	.st2{fill:#6BA843;}
</style>
<path class="st0" d="M155.9,187.2c-1.2,3.5-1.2,23.2-1.2,23.2l7.8,0.1c0.1-6,0.3-16.3,1.1-18.7c0.8-2.1,8.8-9.4,14.7-14.6
	c-2.2-1.6-4.7-3.4-7.1-5.2C165.2,177.3,156.7,185,155.9,187.2z M188.6,216l-0.2-31.3c0,0-0.2-0.1-0.5-0.4l-1.3-0.7l-1.8,3l0.4,31.5
	l8.1,0.4l0-2.7L188.6,216z M155.7,74.8l-1.2-7.6c-0.5,0.1-1,0.2-1.6,0.2c-1.1,0.1-2.1,0-3-0.1l1,7.1
	C152.7,74.2,154.3,74.4,155.7,74.8z M214.2,163.9c-0.8-0.8-7.6-3.9-15.8-7.5c-3.2-1.4-6.5-2.9-9.8-4.3c-1.8-0.8-3.6-1.6-5.3-2.3
	c-2.3-6.7-5.1-15.1-5.1-15.9c0.1-0.7,2.7-6.4,5.4-11.9c-0.9-1-1.6-2.2-2.2-3.3c-0.1-0.2-0.3-0.4-0.4-0.6c-4.1,7.3-7.9,14.2-7.9,14.9
	c0,0.9,2.3,8,4.4,14.3c-6-2.6-10.4-4.4-10.4-4.4l-4.1-6.1c-0.4,1.2-1.1,2.3-2.2,3.3c-3.6,3.1-8.2,1.7-11.6-0.2
	c5.3,8.2,8.9,13.9,8.9,13.9s12.9,6.9,25.9,13.8c3,1.6,6,3.2,8.9,4.7c0.9,0.5,1.8,0.9,2.6,1.4c8,4.3,14.3,7.6,14.8,7.9
	c1.3,0.6,11.8,25.6,15.1,33.6l17.2,0.1C242.7,215.4,223,172.1,214.2,163.9z M143.8,84.3l-19.2,8.1c0,0-9.5-11-11.4-11.4
	c-0.9-0.2-12.2-3.8-23.6-7.4c-0.1,0.1-0.3,0.3-0.4,0.4c-2,1.7-4.3,2.1-6.5,1.7c13.3,3.9,28.3,8.3,29.4,8.6
	c0.6,0.2,5.1,6.8,11.1,15.8c0-0.2,0-0.5,0-0.8c0.7-8.6,21.8-9.7,23.2-9.8c-0.1-0.2-0.2-0.4-0.3-0.6
	C145.6,88.1,144.5,86.3,143.8,84.3z M72.9,70.4c0,0-0.1,0.9-0.2,2.3c2.2,0.6,4.5,1.3,7,2.1C75.9,73.2,72.9,70.4,72.9,70.4z
	 M129.8,110c0.1-0.8,0.2-1.8,0.5-2.7c-1.1-0.2-2.1-0.6-2.9-1C128.1,107.5,129,108.8,129.8,110z M73.7,106.5
	c-0.8,1.6-1.7,3.1-2.6,4.3c10.5-2.1,29-5.6,30-5.5c0.5,0.1,4.7,2.5,9.8,5.6c2.7-0.7,5.9-0.6,8.8-0.2c-8.8-4.9-17.6-9.8-18.8-9.8
	C99.7,100.8,86.2,103.7,73.7,106.5z"/>
<path d="M188.6,152.1l-6.6-18.1l3.9-9.8c-0.8-0.6-1.6-1.3-2.3-2.1c-2.6,5.5-5.3,11.2-5.4,11.9c-0.1,0.8,2.8,9.1,5.1,15.9
	C185,150.5,186.8,151.3,188.6,152.1z M127.3,106.3c-1.3-0.7-2.3-1.7-2.8-3c-0.8-0.8-1.2-1.9-1.3-3.2c-6-9-10.5-15.6-11.1-15.8
	c-1.1-0.3-16.1-4.7-29.4-8.6c-1-0.2-2.1-0.5-3.1-0.9c-2.5-0.7-4.9-1.4-7-2.1c-0.1,0.9-0.3,2.1-0.5,3.3l37.2,11.4l17.8,24.7
	c1.6,0.5,2.6,0.8,2.6,0.8s-0.1-1.3,0.1-3C129,108.8,128.1,107.5,127.3,106.3z M210.4,181.7c-0.5-0.3-6.8-3.6-14.8-7.9
	c-0.9-0.5-1.7-0.9-2.6-1.4c-2.9-1.5-5.9-3.1-8.9-4.7c-13-6.9-25.9-13.8-25.9-13.8s-3.7-5.8-8.9-13.9c-2.8-1.5-4.8-3.4-4.8-3.4
	s-0.1,2-0.6,4.6c3.8,8.6,8.3,18.1,10.2,19c1.6,0.8,9.4,6.3,17.2,12c2.4,1.8,4.9,3.5,7.1,5.2c-5.9,5.2-13.9,12.4-14.7,14.6
	c-0.9,2.4-1.1,12.6-1.1,18.7l10.4,0.2c0,0-3.2-15.9-3.2-17.8c0-0.9,7-6,14.6-11.2c1.7,1.2,2.9,2.2,3.6,2.7c0.3,0.2,0.5,0.4,0.5,0.4
	l0.2,31.3l4.7-0.2l9.2-0.4c0,0,0.8-22.8,4.6-22.3s8.9,22.2,8.9,22.2l9.5,0C222.2,207.3,211.7,182.4,210.4,181.7z M161.3,77.2
	c-0.5-3.5-1.2-8-1.9-12.7c-1.1,1.2-2.6,2.2-4.8,2.6l1.2,7.6C158.1,75.4,160.1,76.5,161.3,77.2z M71.1,110.8c-1,1.4-1.9,2.3-2.1,2.6
	c0.1,0.1,0.1,0.1,0.2,0.2c0.3,0,0.5,0.1,0.8,0.1l27-4.7l-7.4,11.3c1.3,0.2,2.6,0.6,3.9,1.4c1,0.6,1.7,1.3,2.2,2l8.6-11.4l2.1,1.1
	c0.1-0.1,0.2-0.2,0.4-0.3c1.2-1,2.7-1.6,4.2-2c-5.1-3.1-9.3-5.5-9.8-5.6C100.1,105.2,81.6,108.7,71.1,110.8z"/>
<path class="st1" d="M40.4,62.1c0,0-0.8-0.5-1.8-1.5c-1.4,0.7-13.4,7.1-6.5,15.4c0.9,1,1.8,1.8,2.8,2.3c-0.4-0.3-0.7-0.7-1.1-1.1
	C26.8,68.6,40.4,62.1,40.4,62.1z M94.4,43.5c0.5,0.5,0.9,1.1,1.1,1.7c-0.1-1.2-0.6-2.4-1.7-3.6c-6.2-6.8-18.3,0.1-18.3,0.1
	S72,32.8,64.7,34s-6.7,12.7-6.7,12.7s-16.2-6-23.5-0.2c-5.7,4.6,0.4,10.8,3.1,13.1c-2.8-2.8-6-7.6-1.4-11.3c7-5.7,23,0.2,23,0.2
	s-0.6-11.2,6.6-12.4c7.2-1.2,10.7,7.5,10.7,7.5S88.4,36.9,94.4,43.5z M54.5,74.5c0,0-0.4,0.4-1.2,0.9c0.4,2.8,1.5,7.8,4.9,10
	C54.6,81.7,54.5,74.5,54.5,74.5z M90.5,62.5c-0.6-1.6-1.4-3.1-2-4c-0.2,0.1-0.3,0.2-0.3,0.2S89.4,60.3,90.5,62.5z M105.4,61.2
	c-0.5-0.5-0.9-1.2-1.2-2c-3.3-8.6,8.2-15.3,8.2-15.3s-6.7-13.5,2.2-16.6s17,2.6,17,2.6s-1.3-14.3,7.2-15.7c2.8-0.5,5.1,0.3,7,1.5
	c-2-1.9-4.9-3.4-8.7-2.8c-8.5,1.4-7.2,15.7-7.2,15.7s-8-5.7-17-2.6c-8.9,3.1-2.2,16.6-2.2,16.6s-11.5,6.8-8.2,15.3
	C103.2,59.5,104.2,60.6,105.4,61.2z M118.6,61.1c0.2,2.3,1.2,6,4.5,8c-3.3-3.4-2.8-8.9-2.8-8.9S119.6,60.6,118.6,61.1z M189.7,34.2
	c-4.2-4.4-15.5-4.3-20.6-4c-0.4,0.9-0.7,1.5-0.7,1.5S183,30.2,189.7,34.2z M166.4,17.9c0.4,0.1,0.7,0.3,1,0.5
	c-0.6-0.7-1.5-1.4-2.7-1.8c-6.6-2.5-12.5,2-14.5,3.7c0.7,1.1,1,2,1,2S158.3,14.9,166.4,17.9z M140.2,54.6c0,0-0.1,1.5-0.6,3.6
	c0.9,2.3,2.3,4.8,4.8,6.4C140.6,60.8,140.2,54.6,140.2,54.6z M160.9,53.2c0,0,0.1,0.2,0.1,0.5c0.9,0.8,2.1,1.9,3.4,2.9
	C162.3,54.8,160.9,53.2,160.9,53.2z M53.4,103.3c0,0,10.8-11.1,18-7.3c-0.3-0.3-0.6-0.6-0.9-0.9c-6.1-4.7-15.5,3.3-18.3,5.9
	C53,102.3,53.4,103.3,53.4,103.3z M33.2,110.5c0,0-6.6-11.7,4.5-15.4c4.1-1.4,7.3-0.6,9.7,0.9c-2.5-2.4-6.4-4.2-11.7-2.4
	c-11.1,3.7-4.5,15.4-4.5,15.4s-12.2-0.4-13.7,8.7c-0.5,3.2,1.1,5.2,3.4,6.5c-1.1-1.2-1.8-2.8-1.4-5C21,110.1,33.2,110.5,33.2,110.5z
	 M32.5,127.8c0.8,2,2.7,5.5,5.9,7.4c-3.2-3-4.5-7.3-4.5-7.3S33.3,127.9,32.5,127.8z M69.9,113.6c-0.2,0-0.5-0.1-0.8-0.1
	c-0.1-0.1-0.1-0.1-0.2-0.2c0,0-0.1,0.1-0.1,0.1s0.1,0,0.2,0.1c-0.2,0-0.4-0.1-0.7-0.1c-1.4,0-2.7,0.4-3.7,1.1
	c-4.1,2.7-5.3,9.7-5.6,11.8c0,0.4-0.1,0.6-0.1,0.6s-0.5-0.5-1.3-1.2c-2.3-1.8-7.6-5.1-14.1-4.1c-7,1.1-6,9.8-5.2,13.5c0,0,0,0,0,0
	c0.2,1,0.4,1.6,0.4,1.6s-11.9,4.4-10.2,13c0.3,1.7,1.1,2.9,2.2,3.6c-0.4-0.6-0.7-1.3-0.8-2.2c-1.7-8.6,10.2-13,10.2-13
	s-0.2-0.8-0.5-2.1c0-0.1,0-0.3-0.1-0.4c-0.7-4-1.1-11.6,5.4-12.7c2.3-0.4,4.4-0.2,6.3,0.2c3.1,0.7,5.6,2.2,7.2,3.4
	c1.2,0.9,1.9,1.6,1.9,1.6s0-0.3,0.1-0.8c0-0.2,0.1-0.5,0.1-0.8c0.6-3.6,2.7-12,9.1-11.9c0.3,0,0.6,0,0.9,0.1c0.2,0,0.3,0.1,0.5,0.1
	c2,0.3,3.5,1.2,4.8,2.3C74.6,115.6,72.6,114.1,69.9,113.6z M44.7,154.9c0,0-0.7,0.2-1.7,0.5c-0.2,2.2,0.1,5.9,3,8.4
	C43.3,160.1,44.7,154.9,44.7,154.9z M95.7,123.5C95.7,123.6,95.7,123.6,95.7,123.5C95.7,123.6,95.7,123.5,95.7,123.5
	c-0.5-0.7-1.2-1.4-2.1-2c-1.3-0.8-2.6-1.2-3.9-1.4c-4.5-0.7-8.6,1.5-10.2,2.5c0.4,1.1,0.6,1.9,0.6,1.9s3.9-2.9,8.7-3.1
	c2-0.1,4.1,0.3,6.2,1.5C95.2,123.2,95.4,123.3,95.7,123.5z M84,155.6c0.8,1,1.8,2.3,3,3.6c-1.9-2.2-3.1-4.1-3.1-4.1
	S84,155.3,84,155.6z M64.4,153c0,0-0.4,1.4-1.1,3.3c0.4,2.3,1.4,5,3.6,6.9C63.7,159,64.4,153,64.4,153z M178.8,112.6
	c0,0,0,0.5,0,1.2c0.5,1.3,1.2,2.8,2.1,4.3c0.1,0.2,0.3,0.4,0.4,0.6c-0.1-0.2-0.2-0.5-0.4-0.7C179.5,115.2,178.8,112.6,178.8,112.6z
	 M205.1,94.5c-0.2,0.7-0.3,1-0.3,1s5.6,2.3,8.6,6.5C211.5,98.2,207.2,95.6,205.1,94.5z M180.4,73.2c-1.4-2.7-3.6-5-6.9-5
	c-8.6-0.2-11.2,9.8-11.2,9.8s-0.4-0.3-1-0.7c-1.1-0.7-3.1-1.8-5.6-2.4c-1.5-0.4-3.1-0.6-4.7-0.4c-1.4,0.2-2.9,0.6-4.3,1.3
	c-3.8,2.1-3.8,5.6-2.9,8.6c0.6,2.1,1.7,3.8,2.3,4.7c-0.7-1.3-1.5-3.1-1.8-5c-0.3-2.5,0.3-5,3.3-6.7c1.2-0.6,2.4-1,3.5-1.2
	c1.6-0.3,3.2-0.2,4.7,0.1c2.2,0.4,4.2,1.4,5.5,2.1c1.2,0.7,1.9,1.2,1.9,1.2s2.5-10,11.2-9.8C177.1,69.9,179.1,71.3,180.4,73.2z
	 M199.3,77.8c-7.5-1.5-13.6,2.7-15.7,4.3c0.2,1.4,0.2,2.3,0.2,2.3s7.1-6.8,16.4-4.9c1.8,0.3,3,1.2,3.9,2.2
	C203.4,79.8,201.9,78.3,199.3,77.8z M143.6,91.6c2.4-0.3,4-0.3,4-0.3s-0.3-0.4-0.8-1.1c-0.1-0.2-0.2-0.3-0.3-0.5
	c-1.4,0.1-22.5,1.1-23.2,9.8c0,0.3,0,0.5,0,0.8c0.1,1.3,0.5,2.4,1.3,3.2c-0.2-0.5-0.3-1.1-0.3-1.7c0-0.2,0-0.4,0-0.6
	C124.8,94.5,137,92.3,143.6,91.6z M102.4,136.2c-2.7-0.6-5.2-1-6.9-1.2c-0.5,0.8-0.9,1.2-0.9,1.2s3.6,0.3,7.8,1.1
	c0.1,1.2,0.6,2.5,1.6,3.9c-0.6-1.3-0.7-2.5-0.6-3.6c0-0.4,0.1-0.7,0.2-1.1c1.4-5,8.3-8.2,8.3-8.2s-0.7-0.5-1.6-1.3
	C108.4,128,102.8,131.4,102.4,136.2z M138.6,100.5c-0.7-0.1-1.5-0.1-2.3,0.1c-1.8,0.3-3.1,1.2-4.1,2.5c-0.7,0.9-1.2,1.9-1.5,2.9
	c-0.2,0.5-0.3,0.9-0.4,1.4c-0.2,0.9-0.4,1.9-0.5,2.7c-0.2,1.7-0.1,3-0.1,3s-1-0.4-2.6-0.8c-1.8-0.5-4.5-1.2-7.4-1.6
	c-2.9-0.4-6.1-0.4-8.8,0.2c-1.6,0.4-3,1-4.2,2c-0.1,0.1-0.3,0.2-0.4,0.3c-3.1,2.8-2,6.1-0.2,8.7c-1.2-2.4-1.3-5.1,1.5-7.4
	c0.2-0.1,0.3-0.2,0.5-0.3c1.4-1,3.2-1.6,5-1.9c3.3-0.5,7-0.1,10.2,0.5c1.9,0.4,3.7,0.8,4.9,1.2c1.4,0.4,2.3,0.8,2.3,0.8
	s-0.1-1.3,0.1-3.1c0.1-1.2,0.4-2.6,0.9-4c0.2-0.5,0.4-1,0.6-1.5c0.3-0.6,0.6-1.1,1-1.6c0.9-1.1,2.2-2,3.9-2.3c0.9-0.2,1.7-0.2,2.4,0
	c3.2,0.4,5.4,2.8,6.8,4.8C145.4,105.1,142.8,101.1,138.6,100.5z M159.7,124.8c0,0,0.3,0.3,0.7,0.9
	C160.1,125.4,159.9,125.1,159.7,124.8C159.7,124.8,159.7,124.8,159.7,124.8z M147.1,108.1c0.6,1,0.9,1.7,0.9,1.7s11.9-6.8,18-0.1
	c0.1,0.1,0.2,0.2,0.3,0.3c-0.3-0.7-0.7-1.3-1.3-2C159.2,101.8,148.3,107.4,147.1,108.1z M125.2,141.3c0.3,2.1,1,5.3,2.7,7.6
	c-1.8-3.7-1.9-8.3-1.9-8.3S125.7,140.9,125.2,141.3z"/>
<path class="st2" d="M34,77.3c0.3,0.4,0.7,0.8,1.1,1.1c6,5.2,15.1-0.6,18.3-2.9c0.7-0.5,1.2-0.9,1.2-0.9s0.1,7.2,3.7,10.9
	c1.2,1.3,2.9,2.2,5.1,2.2c5.4,0.1,7.8-6.6,8.8-11.6c0.2-1.2,0.4-2.4,0.5-3.3c0.2-1.4,0.2-2.3,0.2-2.3s3,2.8,6.8,4.4
	c1,0.4,2,0.7,3.1,0.9c2.2,0.4,4.5,0,6.5-1.7c0.2-0.1,0.3-0.3,0.4-0.4c3.3-3.3,2.2-7.8,0.8-11c-1.1-2.3-2.3-3.8-2.3-3.8
	s0.1-0.1,0.3-0.2c1.6-1.2,9.8-7.6,7.1-13.3c-0.3-0.6-0.6-1.1-1.1-1.7c-6.1-6.7-18,0.1-18,0.1s-3.5-8.8-10.7-7.5
	c-7.2,1.2-6.6,12.4-6.6,12.4s-15.9-5.9-23-0.2c-4.6,3.7-1.4,8.5,1.4,11.3c0.4,0.4,0.7,0.7,1,1c1,0.9,1.8,1.5,1.8,1.5
	S26.8,68.6,34,77.3z M105.4,61.2c3.3,3.9,10.1,1.4,13.2-0.1c1-0.5,1.7-0.9,1.7-0.9s-0.5,5.4,2.8,8.9c1.3,1.3,3.2,2.4,5.8,2.7
	c6.9,0.8,9.7-8.3,10.8-13.6c0.4-2.1,0.6-3.6,0.6-3.6s0.4,6.2,4.3,10c1.4,1.3,3.1,2.3,5.5,2.7c0.9,0.1,1.9,0.2,3,0.1
	c0.6-0.1,1.1-0.1,1.6-0.2c2.2-0.4,3.8-1.4,4.8-2.6c3.1-3.5,2.1-9.1,1.7-10.8c-0.1-0.3-0.1-0.5-0.1-0.5s1.4,1.6,3.5,3.4
	c3.5,3,9.1,6.4,13.3,3.9c6.8-4.1-0.1-13.5-0.1-13.5s17.2-0.1,15.2-8.8c-0.4-1.7-1.5-3-3.1-3.9c-6.7-4-21.3-2.5-21.3-2.5
	s0.3-0.6,0.7-1.5c1.2-2.9,3.1-9.1-1.8-11.8c-0.3-0.2-0.6-0.3-1-0.5c-8.1-3-15.1,4.4-15.1,4.4s-0.3-0.8-1-2c-0.9-1.4-2.3-3.4-4.4-4.7
	c-1.8-1.2-4.1-1.9-7-1.5c-8.5,1.4-7.2,15.7-7.2,15.7s-8-5.7-17-2.6c-8.9,3.1-2.2,16.6-2.2,16.6s-11.5,6.8-8.2,15.3
	C104.5,60,104.9,60.6,105.4,61.2z M33.8,127.9c0,0,1.3,4.3,4.5,7.3c0,0,0,0,0,0c0,0,0,0,0,0c-0.8-3.7-1.8-12.4,5.2-13.5
	c6.5-1.1,11.7,2.2,14.1,4.1c0.9,0.7,1.3,1.2,1.3,1.2s0-0.2,0.1-0.6c0.3-2.1,1.5-9.1,5.6-11.8c1-0.7,2.3-1.1,3.7-1.1
	c0.2,0,0.4,0,0.7,0.1c-0.1-0.1-0.2-0.1-0.2-0.1s0,0,0.1-0.1c0.2-0.2,1.1-1.2,2.1-2.6c0.9-1.2,1.9-2.7,2.6-4.3
	c1.6-3.3,2.2-7.2-1.2-9.8c-0.3-0.2-0.7-0.4-1-0.6c-7.3-3.8-18,7.3-18,7.3s-0.4-1-1.2-2.2c-1-1.6-2.5-3.6-4.8-5
	c-2.4-1.5-5.6-2.3-9.7-0.9c-11.1,3.7-4.5,15.4-4.5,15.4s-12.2-0.4-13.7,8.7c-0.4,2.1,0.3,3.8,1.4,5c2.8,3,8.8,3.6,11.5,3.8
	C33.3,127.9,33.8,127.9,33.8,127.9z M213.3,102c-3-4.2-8.6-6.5-8.6-6.5s0.1-0.4,0.3-1c0.7-2.6,2.1-9.2-0.9-12.8
	c-0.9-1.1-2.1-1.9-3.9-2.2c-9.3-1.8-16.4,4.9-16.4,4.9s-0.1-0.9-0.2-2.3c-0.4-2.4-1.2-6.2-3.2-8.9c-1.4-1.9-3.3-3.3-5.9-3.4
	c-8.6-0.2-11.2,9.8-11.2,9.8s-0.7-0.6-1.9-1.2c-1.3-0.8-3.3-1.7-5.5-2.1c-1.5-0.3-3.1-0.4-4.7-0.1c-1.2,0.2-2.4,0.6-3.5,1.2
	c-3,1.7-3.6,4.2-3.3,6.7c0.2,1.8,1,3.6,1.8,5c0.1,0.2,0.2,0.4,0.3,0.6c0.1,0.2,0.2,0.4,0.3,0.5c0.4,0.7,0.8,1.1,0.8,1.1
	s-1.6,0.1-4,0.3c-6.5,0.7-18.7,2.9-19.3,9.4c0,0.2,0,0.4,0,0.6c0,0.6,0.1,1.2,0.3,1.7c0.5,1.3,1.5,2.3,2.8,3c0.9,0.4,1.9,0.8,2.9,1
	c0.1-0.5,0.2-0.9,0.4-1.4c0.4-1,0.9-2,1.5-2.9c0.9-1.2,2.3-2.2,4.1-2.5c0.8-0.1,1.6-0.1,2.3-0.1c4.2,0.5,6.9,4.5,7.9,6.5
	c-1.4-2-3.6-4.4-6.8-4.8c-0.8-0.1-1.6-0.1-2.4,0c-1.7,0.3-3,1.2-3.9,2.3c-0.4,0.5-0.8,1-1,1.6c-0.2,0.5-0.4,1-0.6,1.5
	c-0.5,1.4-0.7,2.8-0.9,4c-0.2,1.8-0.1,3.1-0.1,3.1s-0.9-0.3-2.3-0.8c-1.3-0.4-3-0.8-4.9-1.2c-3.2-0.6-6.9-1-10.2-0.5
	c-1.9,0.3-3.6,0.9-5,1.9c-0.2,0.1-0.3,0.2-0.5,0.3c-2.8,2.3-2.7,5-1.5,7.4c1,2.1,2.8,3.9,4.1,5.1c0.9,0.8,1.6,1.3,1.6,1.3
	s-6.8,3.3-8.3,8.2c-0.1,0.4-0.2,0.7-0.2,1.1c-0.1,1.1,0,2.4,0.6,3.6c-1-1.3-1.5-2.6-1.6-3.9c-4.3-0.9-7.8-1.1-7.8-1.1
	s0.4-0.5,0.9-1.2c1.6-2.5,4.5-8.1,0.3-11.4c0,0,0,0,0,0c-0.2-0.2-0.5-0.4-0.8-0.6c-2.1-1.2-4.2-1.6-6.2-1.5
	c-4.8,0.2-8.7,3.1-8.7,3.1s-0.2-0.8-0.6-1.9c-0.6-1.5-1.7-3.6-3.5-5.3c-1.2-1.1-2.8-2-4.8-2.3c-0.2,0-0.3-0.1-0.5-0.1
	c-0.3,0-0.6-0.1-0.9-0.1c-6.4-0.1-8.5,8.3-9.1,11.9c0,0.3-0.1,0.6-0.1,0.8c-0.1,0.5-0.1,0.8-0.1,0.8s-0.7-0.7-1.9-1.6
	c-1.6-1.2-4.1-2.7-7.2-3.4c-1.9-0.4-4-0.6-6.3-0.2c-6.5,1.1-6.1,8.6-5.4,12.6c0,0.1,0,0.3,0.1,0.4c0.2,1.2,0.5,2.1,0.5,2.1
	s-11.9,4.4-10.2,13c0.2,0.9,0.5,1.6,0.8,2.2c2.5,4.1,9.2,2.8,12.3,2c1-0.3,1.7-0.5,1.7-0.5s-1.4,5.1,1.3,8.9c1,1.4,2.5,2.6,4.9,3.3
	c6.3,1.9,10.5-6.2,12.3-10.9c0.7-1.9,1.1-3.3,1.1-3.3s-0.7,6,2.5,10.2c1.5,2,3.8,3.5,7.3,3.9c9.8,0.9,9.9-8.9,9.8-11.4
	c0-0.4,0-0.6,0-0.6s1.2,2,3.1,4.1c2.8,3.3,7.3,7.1,11.5,5.4c7.1-2.7,2.1-12.7,2.1-12.7s16.1,2.8,15.7-5.7c0-0.1,0-0.1,0-0.2
	c3.9-1.1,7.3-3.6,8.8-4.7c0.5-0.4,0.8-0.6,0.8-0.6s0.1,4.5,1.9,8.3c1.3,2.6,3.4,4.8,6.9,4.8c5.8,0.1,8.1-7.5,9-12.6
	c0.5-2.6,0.6-4.6,0.6-4.6s2,1.9,4.8,3.4c3.4,1.9,8,3.3,11.6,0.2c1.1-1,1.8-2.1,2.2-3.3c1.4-4.2-1.3-9-2.6-11
	c-0.4-0.6-0.7-0.9-0.7-0.9s0,0,0.1-0.1c0.3-0.2,1.1-0.8,2.1-1.7c1.4,0.9,3.4,1.5,6,1.3c9.4-0.6,10.8-7.7,10.9-10.6
	c0-0.7,0-1.2,0-1.2s0.7,2.6,2.1,5.4c0.1,0.2,0.2,0.5,0.4,0.7c0.6,1.1,1.4,2.3,2.2,3.3c0.7,0.8,1.4,1.5,2.3,2.1
	c1.8,1.3,3.9,1.9,6.5,1.3c1.6-0.4,2.9-1.1,3.9-1.9c4.8-3.8,3.1-10.8,3.1-10.8s13.6,5.7,15.7-3.3C215.7,106.6,214.8,104.1,213.3,102z
	 M164.9,108c0.6,0.7,1,1.3,1.3,2c-0.1-0.1-0.2-0.2-0.3-0.3c-6.1-6.7-18,0.1-18,0.1s-0.3-0.7-0.9-1.7
	C148.3,107.4,159.2,101.8,164.9,108z"/>
</svg>
