<?xml version="1.0" encoding="utf-8"?>
<!-- Generator: Adobe Illustrator 26.2.1, SVG Export Plug-In . SVG Version: 6.00 Build 0)  -->
<svg version="1.1" id="Layer_1" xmlns="http://www.w3.org/2000/svg" xmlns:xlink="http://www.w3.org/1999/xlink" x="0px" y="0px"
	 viewBox="0 0 512 512" style="enable-background:new 0 0 512 512;" xml:space="preserve">
<style type="text/css">
	.st0{fill:#3C72FC;}
</style>
<g>
	<g>
		<g>
			<path class="st0" d="M202.1,91.6h161.7c16.3,0,29.6-13.3,29.6-29.6c0-5.2-1.4-10.3-4-14.8c-2.2-3.9-7.2-5.2-11-2.9
				c-3.9,2.2-5.2,7.2-2.9,11c1.2,2.1,1.8,4.3,1.8,6.7c0,7.4-6,13.5-13.5,13.5H202.1c-7.4,0-13.5-6-13.5-13.5s6-13.5,13.5-13.5h121.5
				c2.9,0,5.6-1.5,7-4c1.4-2.5,1.4-5.6,0-8.1c-1.2-2.1-1.8-4.3-1.8-6.7c0-7.4,6-13.5,13.5-13.5h140.1c7.4,0,13.5,6,13.5,13.5
				s-6,13.5-13.5,13.5h-69c-4.5,0-8.1,3.6-8.1,8.1s3.6,8.1,8.1,8.1h69c16.3,0,29.6-13.3,29.6-29.6C512,13.3,498.7,0,482.4,0H342.2
				c-16.3,0-29.6,13.3-29.6,29.6c0,0.9,0,1.8,0.1,2.7H202.1c-16.3,0-29.6,13.3-29.6,29.6S185.8,91.6,202.1,91.6z"/>
			<path class="st0" d="M409.6,257.9c-12.4,3.6-21.6,15.5-21.6,29.5c0,16.9,13.3,30.6,29.6,30.6s29.6-13.7,29.6-30.6
				c0-4.6-3.6-8.4-8.1-8.4s-8.1,3.7-8.1,8.4c0,7.7-6,13.9-13.5,13.9s-13.5-6.2-13.5-13.9s6-13.9,13.5-13.9c4.5,0,8.1-3.7,8.1-8.4
				V141.8c-5.4-0.4-10.8-0.8-16.2-0.8V257.9z"/>
			<path class="st0" d="M425.8,134.8c-5.4-0.4-10.8-0.8-16.2-0.8v114c5.4,0,10.8,0,16.2,0V134.8z"/>
			<path class="st0" d="M439.2,434.7c4.5,0,8.1-3.6,8.1-8.1v-22.4h45.8c10.4,0,18.9-8.5,18.9-18.9V353c0-10.4-8.5-18.9-18.9-18.9
				H374.6c-10.4,0-18.9,8.5-18.9,18.9v19.4c0,4.5,3.6,8.1,8.1,8.1s8.1-3.6,8.1-8.1V353c0-1.5,1.2-2.7,2.7-2.7h118.6
				c1.5,0,2.7,1.2,2.7,2.7v32.3c0,1.5-1.2,2.7-2.7,2.7H288.3c-10.4,0-18.9,8.5-18.9,18.9v88.9H221v-35c0-10.4-8.5-18.9-18.9-18.9
				h-45.8V134.7h218.1c0.1,0,0.3,0,0.4,0h34.8l16.2,0h2.7c4.5,0,8.1-3.6,8.1-8.1c0-4.5-3.6-8.1-8.1-8.1H376l-53.6-19.5
				c-4.2-1.5-8.8,0.6-10.4,4.8c-1.5,4.2,0.6,8.8,4.8,10.4l11.8,4.3H118.6V8.1c0-4.5-3.6-8.1-8.1-8.1c-4.5,0-8.1,3.6-8.1,8.1v110.5
				H25.9l63.7-72.8c2.9-3.4,2.6-8.5-0.8-11.4c-3.4-2.9-8.5-2.6-11.4,0.8L2,121.3c-2,2.3-2,5.1-2,5.4v64.6c0,10.4,8.5,18.9,18.9,18.9
				h21.6c10.4,0,18.9-8.5,18.9-18.9v-56.6h26.9v45.6c0,0.1,0,0.3,0,0.4v44.9c0,0.1,0,0.3,0,0.4v44.9c0,0.1,0,0.3,0,0.4v44.9
				c0,0.1,0,0.3,0,0.4v44.9c0,0.1,0,0.3,0,0.4v44.9c0,0.1,0,0.3,0,0.4v34.8H29.6c-10.4,0-18.9,8.5-18.9,18.9v35H8.1
				c-4.5,0-8.1,3.6-8.1,8.1c0,4.5,3.6,8.1,8.1,8.1h140.1c4.5,0,8.1-3.6,8.1-8.1c0-4.5-3.6-8.1-8.1-8.1H26.9v-35
				c0-1.5,1.2-2.7,2.7-2.7h172.5c1.5,0,2.7,1.2,2.7,2.7v35h-24.3c-4.5,0-8.1,3.6-8.1,8.1c0,4.5,3.6,8.1,8.1,8.1h323.4
				c4.5,0,8.1-3.6,8.1-8.1c0-4.5-3.6-8.1-8.1-8.1h-13.5v-35c0-10.4-8.5-18.9-18.9-18.9h-96.7c-4.5,0-8.1,3.6-8.1,8.1
				c0,4.5,3.6,8.1,8.1,8.1h96.7c1.5,0,2.7,1.2,2.7,2.7v35H285.6v-37.7H343c4.5,0,8.1-3.6,8.1-8.1c0-4.5-3.6-8.1-8.1-8.1h-57.4v-35
				c0-1.5,1.2-2.7,2.7-2.7h142.8v22.4C431.2,431,434.8,434.7,439.2,434.7z M40.4,194H18.9c-1.5,0-2.7-1.2-2.7-2.7v-56.6h26.9v56.6h0
				C43.1,192.8,41.9,194,40.4,194z M140.1,441.9h-37.7v-29.2l26.8-8.9c4.2-1.4,6.5-6,5.1-10.2c-1.4-4.2-6-6.5-10.2-5.1l-21.7,7.2
				v-28.2l26.8-8.9c4.2-1.4,6.5-6,5.1-10.2c-1.4-4.2-6-6.5-10.2-5.1l-21.7,7.2v-28.2l26.8-8.9c4.2-1.4,6.5-6,5.1-10.2
				c-1.4-4.2-6-6.5-10.2-5.1l-21.7,7.2v-28.2l26.8-8.9c4.2-1.4,6.5-6,5.1-10.2c-1.4-4.2-6-6.5-10.2-5.1l-21.7,7.2v-28.2l26.8-8.9
				c4.2-1.4,6.5-6,5.1-10.2c-1.4-4.2-6-6.5-10.2-5.1l-21.7,7.2v-28.2l26.8-8.9c4.2-1.4,6.5-6,5.1-10.2c-1.4-4.2-6-6.5-10.2-5.1
				l-21.7,7.2v-34.6h37.7V441.9z"/>
			<path class="st0" d="M409.6,136c5.4,0,10.8,0.3,16.2,0.8v-2l-16.2,0V136z"/>
			<path class="st0" d="M134.7,48l21.6,7.8c0.9,0.3,1.8,0.5,2.8,0.5c3.3,0,6.4-2,7.6-5.3c1.5-4.2-0.6-8.8-4.8-10.4l-21.6-7.8
				c-4.2-1.5-8.8,0.6-10.4,4.8C128.3,41.9,130.5,46.5,134.7,48z"/>
		</g>
	</g>
</g>
</svg>
